<?xml version="1.0" standalone="no"?>
<!DOCTYPE svg PUBLIC "-//W3C//DTD SVG 20010904//EN"
 "http://www.w3.org/TR/2001/REC-SVG-20010904/DTD/svg10.dtd">
<svg version="1.0" xmlns="http://www.w3.org/2000/svg"
 width="605.000000pt" height="413.000000pt" viewBox="0 0 605.000000 413.000000"
 preserveAspectRatio="xMidYMid meet">

<g transform="translate(0.000000,413.000000) scale(0.100000,-0.100000)"
fill="#000000" stroke="none">
<path d="M3009 3431 c-36 -36 -36 -51 -4 -89 l25 -30 -28 -89 -28 -88 -184 -5
c-240 -7 -243 -8 -255 -140 l-7 -75 -46 -15 -47 -15 -21 -91 c-12 -50 -25
-109 -29 -132 l-7 -41 71 -47 c73 -48 74 -51 83 -134 3 -21 8 -25 35 -25 18 0
33 -4 33 -8 1 -15 -55 -54 -125 -88 -94 -45 -208 -158 -257 -254 -39 -76 -72
-182 -83 -267 -6 -49 -10 -54 -46 -71 -79 -37 -108 -121 -70 -201 21 -43 50
-64 70 -52 5 3 12 23 15 43 19 110 57 122 113 37 10 -16 25 -24 44 -24 26 0
29 -3 29 -32 0 -18 4 -38 8 -44 8 -12 453 0 577 16 56 7 39 8 -87 5 -124 -3
-159 0 -168 10 -16 19 -10 27 81 96 l79 60 108 -5 c131 -6 123 -6 254 0 l107
5 47 -43 c26 -24 53 -58 61 -76 10 -24 19 -32 29 -28 9 3 20 6 25 6 6 0 5 9
-1 21 -6 11 -15 98 -20 192 -12 219 -12 237 0 237 5 0 11 -33 13 -72 l3 -73 2
71 2 72 32 6 c17 3 34 2 38 -3 3 -6 22 -4 49 5 24 8 48 11 52 7 5 -5 5 -108 1
-228 l-7 -220 -60 0 c-57 0 -60 -1 -60 -25 0 -24 4 -26 75 -36 41 -5 82 -8 90
-6 13 3 15 42 17 272 2 295 2 297 -57 288 -17 -3 -33 -1 -36 3 -4 8 12 166 22
217 l5 23 31 -22 c91 -65 215 -86 314 -52 104 34 206 121 245 207 53 117 -18
337 -133 409 -27 17 -48 34 -48 39 0 5 -8 8 -17 6 -14 -2 -19 7 -24 49 -7 58
-35 110 -80 148 -45 37 -124 35 -195 -5 l-53 -29 -3 27 c-2 17 -12 31 -28 39
-30 14 -247 41 -399 50 -60 3 -115 9 -121 13 -8 5 -9 31 -1 100 9 78 14 95 36
116 32 30 34 77 3 98 -33 23 -56 20 -89 -13z m76 -22 c10 -15 -3 -59 -17 -59
-6 0 -20 7 -30 17 -17 15 -17 17 -2 35 19 20 39 23 49 7z m-49 -205 c-3 -9 -6
-29 -6 -45 0 -23 -4 -29 -21 -29 -16 0 -19 4 -14 18 4 9 12 29 17 45 5 15 14
27 20 27 6 0 7 -7 4 -16z m249 -155 c88 -6 185 -14 215 -17 l55 -7 -3 -65 c-4
-89 -42 -474 -48 -479 -3 -3 -66 -6 -142 -7 -75 0 -231 -6 -347 -12 -115 -6
-265 -14 -332 -17 l-123 -6 0 153 c0 163 17 423 29 448 5 9 30 17 67 21 74 9
417 2 629 -12z m531 -48 c66 -40 87 -152 40 -220 -40 -58 -132 -101 -151 -71
-3 5 4 17 17 27 57 45 86 84 97 131 15 60 3 95 -39 120 -16 10 -27 22 -23 25
11 11 26 8 59 -12z m-48 -63 c22 -22 15 -94 -13 -125 -22 -25 -26 -26 -38 -12
-6 9 -18 14 -24 12 -7 -3 -13 2 -13 11 0 9 5 16 10 16 25 0 6 18 -40 37 -27
12 -50 26 -50 31 0 29 143 55 168 30z m-1242 -99 c-3 -34 -6 -109 -6 -165 0
-111 -6 -123 -46 -85 -21 19 -21 46 1 214 6 42 5 46 -10 41 -13 -5 -16 -2 -13
12 2 10 10 19 18 19 8 0 19 6 23 13 4 6 15 12 24 12 13 0 15 -9 9 -61z m1114
26 c17 -9 30 -23 30 -33 0 -37 -22 -148 -31 -156 -5 -6 -9 -20 -9 -32 0 -13
-4 -26 -10 -29 -6 -4 -10 10 -10 34 0 57 -16 51 -24 -9 -4 -27 -12 -50 -17
-50 -6 0 -9 10 -6 23 3 12 11 72 17 132 16 152 13 145 60 120z m-1179 -48 c-1
-12 -15 -9 -19 4 -3 6 1 10 8 8 6 -3 11 -8 11 -12z m1239 -32 c0 -8 -4 -15
-10 -15 -5 0 -10 7 -10 15 0 8 5 15 10 15 6 0 10 -7 10 -15z m-1244 -31 c-5
-13 -10 -14 -18 -6 -6 6 -8 18 -4 28 5 13 10 14 18 6 6 -6 8 -18 4 -28z m1546
25 c14 -8 18 -17 14 -35 -5 -19 -3 -22 10 -17 16 6 34 -11 34 -33 0 -6 -14
-17 -31 -24 -29 -12 -32 -11 -74 30 -46 45 -48 59 -12 76 30 15 35 16 59 3z
m-1554 -67 c2 -7 -3 -12 -12 -12 -9 0 -16 7 -16 16 0 17 22 14 28 -4z m-8 -42
c0 -11 -7 -20 -15 -20 -8 0 -15 9 -15 20 0 11 7 20 15 20 8 0 15 -9 15 -20z
m1481 -27 c54 -58 74 -123 58 -187 -14 -58 -66 -112 -122 -127 -110 -31 -262
1 -311 66 -24 31 -25 35 -11 62 8 15 15 39 15 53 0 33 26 70 48 70 29 0 60 28
67 59 6 29 7 29 25 11 23 -23 62 -19 130 15 49 25 60 23 101 -22z m171 -8 c14
-31 9 -36 -33 -38 -26 -2 -34 3 -37 17 -4 20 21 46 45 46 7 0 19 -11 25 -25z
m30 -99 c10 -48 2 -58 -37 -48 -41 11 -58 57 -30 78 34 25 58 14 67 -30z m-24
-72 c26 -7 28 -24 6 -65 -13 -26 -19 -30 -42 -24 -42 10 -48 21 -29 60 17 36
25 39 65 29z m-907 -55 c7 -24 7 -24 8 4 1 17 7 27 16 27 17 0 23 -12 27 -50
3 -23 -1 -25 -40 -26 -36 -2 -45 1 -52 19 l-9 22 0 -21 c-1 -18 -7 -22 -36
-22 -36 0 -39 6 -29 46 4 13 12 21 19 18 8 -3 26 -1 42 4 38 11 46 8 54 -21z
m88 0 c13 -38 3 -60 -16 -34 -15 21 -18 65 -4 65 5 0 14 -14 20 -31z m51 5
c14 -36 13 -44 -9 -44 -12 0 -23 11 -30 31 -14 41 -14 39 9 39 13 0 24 -10 30
-26z m42 -4 c6 -39 -9 -49 -22 -15 -13 35 -13 45 4 45 8 0 16 -13 18 -30z m32
-10 c7 -24 6 -24 -8 -6 -9 11 -16 27 -16 35 0 21 16 2 24 -29z m30 14 c9 -36
-1 -43 -14 -10 -12 33 -12 36 -1 36 5 0 12 -12 15 -26z m-582 9 c12 -7 -22
-65 -35 -60 -7 3 -11 11 -9 18 3 10 -1 9 -15 -3 -10 -8 -29 -15 -43 -13 -20 2
-24 7 -23 26 l3 24 -19 -25 c-11 -14 -23 -21 -27 -17 -14 14 26 44 63 45 19 1
38 3 40 5 5 6 56 6 65 0z m86 -7 c1 -2 -2 -15 -7 -30 -13 -32 -36 -35 -28 -3
l6 22 -16 -22 c-17 -25 -43 -31 -43 -10 0 7 7 23 16 36 13 18 22 21 43 16 14
-4 27 -8 29 -9z m46 5 c10 -15 -12 -61 -29 -61 -18 0 -19 9 -5 44 10 26 24 33
34 17z m80 -19 c-9 -35 -10 -36 -45 -38 -32 -2 -34 2 -20 39 7 18 17 24 40 25
29 1 31 -1 25 -26z m-426 -7 c-12 -14 -23 -23 -25 -21 -8 7 22 46 34 46 8 0 4
-10 -9 -25z m1406 -40 c19 -15 19 -15 -4 -40 -22 -24 -47 -35 -36 -16 3 5 -6
12 -20 15 l-27 7 23 25 c27 28 37 29 64 9z m-1466 -44 c3 -15 -8 -33 -34 -56
-43 -40 -62 -43 -94 -17 l-23 18 63 43 c68 45 83 47 88 12z m357 9 c157 -7
301 -7 386 -2 150 10 199 7 199 -14 0 -11 -21 -14 -92 -16 l-93 -2 98 -5 c53
-3 97 -9 97 -13 0 -5 0 -12 0 -18 0 -6 -32 -11 -72 -12 l-73 -2 69 -3 68 -4
-6 -52 c-4 -29 -14 -82 -22 -118 -17 -73 -23 -78 -99 -79 -47 0 -76 -14 -51
-23 12 -5 16 -22 16 -75 0 -38 -2 -71 -5 -74 -3 -3 -36 10 -73 28 -75 38 -99
42 -117 17 -7 -9 -17 -13 -24 -8 -9 5 -10 10 -2 18 6 6 11 33 11 59 l0 48 40
0 c40 0 40 0 40 -37 0 -44 13 -69 29 -59 6 4 11 38 11 82 0 63 3 74 18 75 16
1 16 2 0 6 -14 4 -18 15 -18 59 l0 54 35 0 c19 0 35 -4 35 -10 0 -5 5 -10 11
-10 6 0 9 10 7 22 -2 16 -13 26 -38 33 -20 6 -35 16 -35 25 0 17 -71 20 -165
6 l-55 -8 -12 31 c-6 17 -18 31 -27 31 -19 0 -21 -11 -5 -27 16 -16 2 -33 -27
-33 -20 0 -24 5 -24 31 0 17 -4 28 -10 24 -5 -3 -10 -19 -10 -35 l0 -29 -97
-3 -98 -3 -20 -32 c-11 -18 -27 -32 -35 -30 -26 4 -23 52 4 85 31 36 33 46 6
32 -59 -31 -67 -149 -10 -150 8 0 29 -14 47 -30 29 -27 32 -34 34 -98 2 -78
-3 -92 -34 -92 -12 0 -48 -11 -80 -24 -31 -13 -60 -20 -63 -15 -8 13 5 29 23
29 13 0 14 13 8 93 -4 50 -13 144 -21 207 -8 63 -14 128 -14 144 0 28 1 29 43
22 23 -3 155 -11 292 -16z m709 -10 c32 -17 66 -30 75 -30 20 0 41 -19 41 -37
0 -7 -7 -13 -15 -13 -8 0 -15 4 -15 10 0 5 -6 7 -13 4 -14 -5 -93 44 -122 76
-23 26 -21 25 49 -10z m316 -15 c20 -24 4 -48 -26 -41 -14 4 -32 12 -39 19
-11 10 -9 14 9 24 28 16 41 16 56 -2z m-92 -27 c7 -7 12 -21 12 -31 0 -17 -5
-19 -36 -14 -43 7 -72 38 -46 49 27 11 57 9 70 -4z m-1288 -138 c0 -122 -1
-130 -20 -130 -10 0 -54 -11 -97 -25 -43 -14 -88 -25 -101 -25 l-22 0 21 43
c42 82 187 267 209 267 6 0 10 -54 10 -130z m-136 81 c13 -15 15 -24 7 -38
-20 -39 -34 -43 -63 -18 -34 29 -35 39 -6 59 29 21 41 20 62 -3z m795 -37
c-10 -13 -25 -15 -66 -11 -52 5 -53 5 -55 -21 -2 -45 -3 -50 -10 -57 -9 -9
-22 61 -15 79 6 14 39 21 121 24 34 2 37 0 25 -14z m-331 -48 c3 -49 -10 -78
-27 -60 -6 5 -6 27 -2 52 9 44 5 51 -13 28 -6 -7 -23 -16 -38 -20 -26 -6 -28
-4 -28 24 l0 31 53 -3 52 -3 3 -49z m167 8 c0 -33 -4 -40 -22 -42 -21 -3 -23
1 -23 36 0 38 12 54 35 48 6 -2 10 -20 10 -42z m-136 19 c0 -10 -4 -36 -8 -58
-9 -40 -9 -39 -10 18 0 32 3 57 9 57 6 0 10 -8 9 -17z m79 -37 c4 -57 -19 -61
-29 -5 -6 34 -6 33 -8 -9 -1 -49 16 -62 54 -42 14 7 31 9 42 5 10 -5 29 -9 43
-10 14 -1 34 -5 45 -10 18 -7 18 -6 -2 14 -27 26 -28 29 -6 53 23 25 34 22 27
-7 -7 -29 10 -55 37 -55 11 0 19 -7 19 -15 0 -9 -9 -15 -24 -15 -57 0 -85 -12
-95 -41 -15 -44 -41 -38 -41 10 0 44 -5 48 -61 43 -35 -4 -39 -7 -39 -31 0
-53 10 -71 36 -65 22 6 24 3 25 -32 3 -79 -2 -86 -37 -49 -19 20 -27 43 -31
81 -8 71 -19 70 -15 -1 3 -35 0 -55 -7 -55 -6 0 -11 19 -11 45 0 40 -3 45 -27
52 l-28 7 30 7 30 7 -31 1 c-17 0 -46 4 -63 7 -17 4 -31 3 -31 -2 1 -23 22
-38 62 -43 41 -6 43 -7 43 -41 0 -28 -4 -36 -22 -38 -17 -3 -22 2 -25 25 -2
18 -9 28 -21 29 -10 1 -12 0 -3 -3 15 -4 28 -113 14 -113 -5 0 -8 13 -8 29 0
42 -9 61 -30 61 -12 0 -18 7 -18 18 1 9 -2 38 -6 64 -9 56 7 70 69 59 70 -12
70 -12 73 57 l3 63 32 -3 c31 -3 32 -5 35 -52z m-651 22 c28 -26 28 -32 2 -69
-24 -35 -26 -35 -61 -6 l-28 23 25 37 c14 20 29 37 32 37 4 0 17 -10 30 -22z
m418 -28 c3 -5 -1 -10 -10 -10 -9 0 -13 5 -10 10 3 6 8 10 10 10 2 0 7 -4 10
-10z m-480 -73 c24 -20 26 -25 14 -50 -13 -29 -29 -33 -60 -17 -22 12 -24 28
-7 65 14 31 20 31 53 2z m759 -33 c7 -17 -10 -54 -24 -54 -6 0 -10 16 -10 35
0 37 22 49 34 19z m171 -3 c-6 -5 -23 -10 -40 -11 -44 -3 -52 -1 -35 10 19 13
87 13 75 1z m-718 -108 l10 -68 2 68 c1 49 5 67 15 67 10 0 13 -23 12 -107 0
-60 1 -162 4 -228 l5 -120 -115 -5 c-73 -4 -118 -2 -122 5 -9 12 -10 231 -1
343 5 71 8 82 24 82 14 0 19 -8 20 -27 l2 -28 4 28 c7 44 23 31 25 -20 l1 -48
6 49 c4 36 11 50 24 53 41 8 47 9 53 16 16 16 22 4 31 -60z m-249 40 c20 -17
20 -21 7 -51 -13 -30 -16 -31 -42 -20 -15 7 -30 13 -31 14 -2 2 1 19 8 38 13
40 28 45 58 19z m847 -3 c3 -6 -5 -14 -18 -19 -14 -6 -27 -16 -30 -23 -4 -9
-6 -8 -6 4 -1 17 24 48 39 48 5 0 12 -5 15 -10z m-275 -57 c-1 -27 -1 -27 -15
-9 -14 19 -12 36 6 36 5 0 9 -12 9 -27z m275 -3 c0 -13 -6 -25 -12 -27 -9 -3
-13 6 -13 27 0 21 4 30 13 28 6 -3 12 -15 12 -28z m-205 -19 c0 -23 -16 -36
-25 -21 -9 14 1 40 15 40 5 0 10 -9 10 -19z m-95 -31 c10 -46 -6 -58 -21 -14
-13 38 -10 59 6 49 5 -3 11 -19 15 -35z m-560 -6 c0 -14 -8 -20 -32 -22 -29
-3 -33 0 -33 21 0 32 6 36 38 28 18 -5 27 -14 27 -27z m515 6 c14 -25 8 -136
-8 -152 -9 -9 -12 -3 -12 28 0 23 -7 63 -15 90 -8 27 -15 50 -15 52 0 1 9 2
20 2 10 0 24 -9 30 -20z m-63 -17 c12 -43 6 -172 -7 -188 -21 -26 -27 -17 -33
49 -6 64 -32 144 -43 133 -3 -3 -1 -22 5 -44 13 -46 15 -190 2 -197 -5 -3 -12
29 -15 72 -4 42 -9 98 -12 125 -6 46 -5 48 28 62 50 21 67 19 75 -12z m530
-25 c-8 -18 -19 -46 -22 -61 -9 -34 -26 -30 -37 8 -12 45 0 71 35 82 18 5 34
8 36 7 2 -2 -3 -18 -12 -36z m-92 -26 c0 -58 0 -58 -105 -64 -45 -3 -55 0 -58
15 -3 13 3 17 22 17 31 0 66 32 66 59 0 14 8 21 28 24 44 6 47 3 47 -51z m164
49 c20 -13 -25 -121 -50 -121 -27 0 -31 15 -18 62 17 65 35 80 68 59z m-369
-60 c0 -66 -5 -71 -72 -71 -34 0 -39 3 -33 18 4 9 10 38 12 65 l6 47 43 0 44
0 0 -59z m416 17 c-3 -13 -6 -52 -6 -88 l-1 -65 -19 24 c-25 29 -26 83 -3 122
21 34 38 38 29 7z m-1158 -30 c2 8 10 8 27 0 25 -11 47 -58 40 -83 -3 -8 -7
-22 -10 -30 -3 -12 -10 -10 -30 10 -57 52 -122 38 -152 -33 -13 -32 -16 -34
-25 -18 -34 61 68 185 126 154 14 -8 21 -8 24 0z"/>
<path d="M3175 2879 c-17 -26 160 -177 182 -155 7 7 -126 139 -155 155 -15 8
-23 8 -27 0z"/>
<path d="M2805 2792 c-38 -37 -86 -80 -105 -94 -56 -43 -29 -42 39 2 74 48
161 127 161 146 0 27 -26 12 -95 -54z"/>
<path d="M3191 2702 c-7 -14 -6 -24 4 -38 18 -25 50 -7 50 27 0 31 -39 39 -54
11z"/>
<path d="M2820 2675 c-15 -18 -6 -45 13 -45 8 0 20 7 27 15 10 12 10 18 0 30
-16 19 -24 19 -40 0z"/>
<path d="M3101 2394 c0 -11 3 -14 6 -6 3 7 2 16 -1 19 -3 4 -6 -2 -5 -13z"/>
<path d="M3428 2163 c6 -2 18 -2 25 0 6 3 1 5 -13 5 -14 0 -19 -2 -12 -5z"/>
<path d="M3350 2080 c0 -5 14 -10 31 -10 17 0 28 4 24 10 -3 6 -17 10 -31 10
-13 0 -24 -4 -24 -10z"/>
<path d="M2860 2026 c0 -2 11 -6 25 -8 13 -3 22 -1 19 3 -5 9 -44 13 -44 5z"/>
<path d="M3483 1835 c0 -44 2 -61 4 -37 2 23 2 59 0 80 -2 20 -4 1 -4 -43z"/>
<path d="M3553 1860 c0 -30 2 -43 4 -27 2 15 2 39 0 55 -2 15 -4 2 -4 -28z"/>
<path d="M3857 1748 c-15 -11 -18 -25 -15 -73 3 -55 5 -61 33 -74 17 -8 52
-15 78 -15 59 -1 77 18 77 80 0 64 -24 87 -96 92 -40 2 -65 -1 -77 -10z m125
-39 c21 -11 21 -12 3 -25 -34 -25 -105 -11 -105 21 0 18 71 21 102 4z m-34
-57 c42 -4 52 -8 50 -21 -4 -23 -82 -27 -114 -6 -28 18 -34 51 -6 40 9 -4 41
-10 70 -13z"/>
<path d="M3712 1658 c-36 -40 -53 -109 -36 -153 9 -22 108 -65 151 -65 50 0
73 16 73 50 0 25 -4 30 -25 30 -17 0 -29 -8 -37 -25 -6 -14 -17 -25 -25 -25
-18 0 -17 6 9 40 18 25 20 33 10 55 -22 48 -92 19 -92 -38 0 -12 -6 -17 -17
-15 -31 6 -29 86 1 131 28 41 21 50 -12 15z m79 -131 c-8 -8 -11 -7 -11 4 0
20 13 34 18 19 3 -7 -1 -17 -7 -23z"/>
<path d="M1592 1653 c-37 -15 -47 -104 -17 -149 20 -31 19 -34 -10 -34 -36 0
-58 39 -53 95 2 31 -1 45 -9 45 -22 0 -16 -100 7 -138 l20 -32 97 3 c82 4 107
9 151 31 52 26 69 56 33 56 -12 0 -22 9 -26 23 -13 47 -29 67 -51 67 -33 0
-47 -33 -40 -91 5 -39 4 -49 -8 -49 -23 0 -27 15 -15 50 16 45 -3 108 -37 120
-14 6 -26 10 -27 9 -1 0 -8 -3 -15 -6z m48 -101 c0 -26 -4 -33 -17 -30 -19 3
-30 56 -18 86 6 15 8 15 21 -2 8 -11 14 -35 14 -54z"/>
<path d="M1840 1419 c-14 -6 -47 -15 -73 -21 -27 -5 -45 -14 -40 -18 12 -12
106 6 149 29 35 18 36 20 14 20 -14 0 -36 -5 -50 -10z"/>
<path d="M2320 1389 c0 -5 28 -9 62 -9 34 0 59 2 57 4 -10 8 -119 14 -119 5z"/>
<path d="M898 1053 c-39 -47 -128 -183 -128 -197 0 -13 12 -16 65 -16 l65 0 0
-40 c0 -33 3 -40 20 -40 17 0 20 7 20 40 0 33 3 40 20 40 11 0 20 5 20 10 0 6
-9 10 -20 10 -18 0 -20 8 -22 102 -3 104 -12 124 -40 91z m2 -123 l0 -70 -45
0 c-25 0 -45 5 -45 11 0 11 78 129 85 129 3 0 5 -31 5 -70z"/>
<path d="M1067 1050 c-69 -55 -57 -267 16 -285 45 -12 89 -1 109 25 22 31 33
111 23 176 -13 89 -88 131 -148 84z m87 -23 c41 -30 44 -181 3 -224 -27 -30
-51 -29 -77 4 -19 25 -21 38 -18 116 2 74 6 91 22 103 24 17 47 18 70 1z"/>
<path d="M1326 974 c-94 -132 -94 -132 -10 -136 l69 -3 3 -37 c4 -51 32 -53
32 -2 0 27 5 37 20 41 11 3 20 9 20 13 0 4 -9 10 -20 13 -18 5 -20 14 -20 106
0 76 -3 101 -13 101 -7 0 -43 -43 -81 -96z m62 -41 l-3 -68 -47 -3 c-27 -2
-48 1 -48 5 0 13 84 133 93 133 4 0 7 -30 5 -67z"/>
<path d="M1670 916 c0 -130 2 -156 15 -156 10 0 15 16 17 63 l3 62 60 3 c87 3
103 9 120 42 21 41 19 75 -9 107 -23 26 -30 28 -115 31 l-91 4 0 -156z m178
102 c7 -7 12 -24 12 -39 0 -40 -33 -59 -102 -59 l-58 0 0 55 0 55 68 0 c40 0
73 -5 80 -12z"/>
<path d="M2003 1053 c-3 -10 -28 -74 -55 -143 -26 -69 -48 -131 -48 -138 0
-30 34 -4 50 38 l18 45 57 3 c66 4 77 -3 95 -58 9 -27 19 -40 32 -40 10 0 18
3 18 8 0 4 -27 72 -59 152 -47 117 -63 146 -80 148 -13 2 -24 -3 -28 -15z m55
-92 c32 -77 30 -81 -28 -81 -27 0 -50 3 -50 7 0 20 46 141 51 135 3 -4 15 -31
27 -61z"/>
<path d="M2272 1050 c-41 -25 -62 -73 -62 -142 0 -95 56 -150 151 -150 29 0
64 8 86 19 37 20 38 21 38 76 0 32 -3 57 -7 57 -5 0 -33 0 -63 0 -42 0 -55 -3
-55 -15 0 -11 12 -15 45 -15 43 0 45 -1 45 -29 0 -37 -19 -52 -73 -58 -57 -7
-104 17 -123 62 -40 96 14 185 111 185 28 0 44 -7 65 -30 41 -44 65 -37 40 11
-27 49 -138 66 -198 29z"/>
<path d="M2560 915 l0 -155 110 0 c91 0 110 3 110 15 0 12 -17 15 -95 15 l-95
0 0 55 0 54 88 3 c69 2 87 6 87 18 0 12 -18 16 -87 18 l-88 3 0 44 0 44 93 3
c74 2 92 6 92 18 0 12 -20 16 -107 18 l-108 3 0 -156z"/>
<path d="M2966 1058 c-3 -7 -4 -76 -3 -153 2 -123 4 -140 19 -143 16 -3 18 10
20 119 l3 122 80 -121 c63 -95 85 -121 103 -122 l23 0 -3 153 c-3 127 -5 152
-18 152 -12 0 -16 -22 -20 -119 l-5 -118 -80 118 c-75 111 -109 144 -119 112z"/>
<path d="M3335 1050 c-62 -41 -85 -145 -47 -220 48 -96 202 -96 253 0 40 73
14 185 -51 223 -39 24 -117 22 -155 -3z m128 -21 c72 -33 77 -192 8 -229 -11
-5 -38 -10 -61 -10 -33 0 -48 6 -71 29 -26 26 -29 36 -29 88 1 32 7 69 14 82
25 45 88 63 139 40z"/>
<path d="M3600 1050 c0 -17 7 -20 50 -20 l50 0 0 -135 c0 -113 2 -135 15 -135
13 0 15 22 15 134 l0 135 52 3 c41 2 54 7 56 21 3 15 -8 17 -117 17 -114 0
-121 -1 -121 -20z"/>
<path d="M4000 915 c0 -148 1 -155 20 -155 18 0 20 7 20 70 l0 70 70 0 c63 0
70 2 70 20 0 18 -7 20 -70 20 l-70 0 0 45 0 44 83 3 c65 2 82 6 82 18 0 12
-19 16 -102 18 l-103 3 0 -156z"/>
<path d="M4307 1037 c-46 -43 -64 -105 -48 -167 22 -83 88 -125 174 -109 68
12 110 70 110 154 0 98 -55 155 -150 155 -45 0 -56 -4 -86 -33z m156 -18 c56
-43 60 -148 7 -201 -23 -22 -37 -28 -73 -28 -76 0 -118 65 -104 158 13 79 109
120 170 71z"/>
<path d="M4603 1054 c-9 -25 3 -217 16 -245 18 -37 45 -50 109 -50 51 -1 59 2
84 30 27 31 28 34 28 156 0 101 -3 125 -14 125 -11 0 -15 -25 -18 -119 -4
-142 -14 -161 -84 -161 -34 0 -47 5 -63 26 -18 23 -21 41 -21 140 0 96 -2 114
-15 114 -9 0 -18 -7 -22 -16z"/>
<path d="M4920 915 c0 -131 2 -155 15 -155 12 0 15 19 15 115 0 63 4 115 8
115 5 0 43 -52 86 -115 55 -83 82 -115 96 -115 19 0 20 7 20 155 0 148 -1 155
-20 155 -18 0 -20 -8 -22 -121 l-3 -121 -80 121 c-110 166 -115 165 -115 -34z"/>
<path d="M5230 916 l0 -156 81 0 c57 0 89 5 109 16 78 47 90 189 21 258 -30
29 -36 31 -121 34 l-90 4 0 -156z m190 89 c20 -21 24 -37 25 -84 0 -97 -33
-131 -131 -131 l-44 0 0 120 0 120 63 0 c55 0 67 -3 87 -25z"/>
<path d="M1500 870 c0 -17 7 -20 53 -20 58 0 68 4 60 26 -3 10 -22 14 -59 14
-47 0 -54 -2 -54 -20z"/>
</g>
</svg>
